<?xml version="1.0" encoding="UTF-8" standalone="no"?>
<!-- Created with Inkscape (http://www.inkscape.org/) -->

<svg
   xmlns:dc="http://purl.org/dc/elements/1.1/"
   xmlns:cc="http://creativecommons.org/ns#"
   xmlns:rdf="http://www.w3.org/1999/02/22-rdf-syntax-ns#"
   xmlns:svg="http://www.w3.org/2000/svg"
   xmlns="http://www.w3.org/2000/svg"
   xmlns:sodipodi="http://sodipodi.sourceforge.net/DTD/sodipodi-0.dtd"
   xmlns:inkscape="http://www.inkscape.org/namespaces/inkscape"
   width="100"
   height="100"
   viewBox="0 0 26.458333 26.458333"
   version="1.1"
   id="svg8"
   sodipodi:docname="clear-day.svg"
   inkscape:version="0.92.4 (5da689c313, 2019-01-14)">
  <defs
     id="defs2" />
  <sodipodi:namedview
     id="base"
     pagecolor="#ffffff"
     bordercolor="#666666"
     borderopacity="1.0"
     inkscape:pageopacity="0.0"
     inkscape:pageshadow="2"
     inkscape:zoom="5.6"
     inkscape:cx="33.798705"
     inkscape:cy="49.972921"
     inkscape:document-units="mm"
     inkscape:current-layer="layer1"
     showgrid="false"
     units="px"
     showguides="false"
     inkscape:window-width="1920"
     inkscape:window-height="1027"
     inkscape:window-x="-8"
     inkscape:window-y="-8"
     inkscape:window-maximized="1" />
  <metadata
     id="metadata5">
    <rdf:RDF>
      <cc:Work
         rdf:about="">
        <dc:format>image/svg+xml</dc:format>
        <dc:type
           rdf:resource="http://purl.org/dc/dcmitype/StillImage" />
        <dc:title></dc:title>
      </cc:Work>
    </rdf:RDF>
  </metadata>
  <g
     inkscape:label="Layer 1"
     inkscape:groupmode="layer"
     id="layer1"
     transform="translate(0,-270.54167)">
    <path
       d="m 25.108418,284.85076 c 0,0 -2.159865,0 -2.159865,0 -0.599362,0 -1.07993,-0.48597 -1.07993,-1.07992 0,-0.59395 0.480568,-1.07993 1.07993,-1.07993 0,0 2.159865,0 2.159865,0 0.593961,0 1.079932,0.48598 1.079932,1.07993 0,0.59395 -0.485971,1.07992 -1.079932,1.07992 z m -4.244132,-7.18694 c -0.421173,0.42117 -1.106931,0.42117 -1.528104,0 -0.421173,-0.42116 -0.421173,-1.10692 0,-1.5281 0,0 1.528104,-1.52811 1.528104,-1.52811 0.421173,-0.42116 1.10693,-0.42116 1.528103,0 0.421173,0.42118 0.421173,1.10694 0,1.52811 0,0 -1.528103,1.5281 -1.528103,1.5281 z m -7.635118,12.5866 c -3.5799761,0 -6.479594,-2.89961 -6.479594,-6.47958 0,-3.57997 2.8996179,-6.47959 6.479594,-6.47959 3.579972,0 6.479589,2.89962 6.479589,6.47959 0,3.57997 -2.899617,6.47958 -6.479589,6.47958 z m 0,-15.11904 c -0.593962,0 -1.079933,-0.48057 -1.079933,-1.07991 0,0 0,-2.15988 0,-2.15988 0,-0.59396 0.485971,-1.07994 1.079933,-1.07994 0.593961,0 1.079931,0.48598 1.079931,1.07994 0,0 0,2.15988 0,2.15988 0,0.59934 -0.48597,1.07991 -1.079931,1.07991 z m -7.6351194,2.53244 c 0,0 -1.5281048,-1.5281 -1.5281048,-1.5281 -0.4211735,-0.42117 -0.4211735,-1.10693 0,-1.52811 0.4211736,-0.42116 1.1069304,-0.42116 1.5281048,0 0,0 1.5281036,1.52811 1.5281036,1.52811 0.4211732,0.42118 0.4211732,1.10694 0,1.5281 -0.4211751,0.42117 -1.1069304,0.42117 -1.5281036,0 z m -1.0043377,6.10702 c 0,0.59395 -0.4805698,1.07992 -1.0799319,1.07992 0,0 -2.1598641,0 -2.1598641,0 -0.5939626,0 -1.07993196,-0.48597 -1.07993196,-1.07992 0,-0.59395 0.48596936,-1.07993 1.07993196,-1.07993 0,0 2.1598641,0 2.1598641,0 0.5993621,0 1.0799319,0.48598 1.0799319,1.07993 z m 1.0043377,6.10701 c 0.4211732,-0.42117 1.1069285,-0.42117 1.5281036,0 0.4211732,0.42117 0.4211732,1.10693 0,1.5281 0,0 -1.5281036,1.52811 -1.5281036,1.52811 -0.4211744,0.42117 -1.1069312,0.42117 -1.5281048,0 -0.4211735,-0.42118 -0.4211735,-1.10693 0,-1.52811 0,0 1.5281048,-1.5281 1.5281048,-1.5281 z m 7.6351194,2.53244 c 0.593961,0 1.079931,0.48057 1.079931,1.07994 0,0 0,2.15986 0,2.15986 0,0.59396 -0.48597,1.07993 -1.079931,1.07993 -0.593962,0 -1.079933,-0.48597 -1.079933,-1.07993 0,0 0,-2.15986 0,-2.15986 0,-0.59937 0.485971,-1.07994 1.079933,-1.07994 z m 7.635118,-2.53244 c 0,0 1.528103,1.5281 1.528103,1.5281 0.421173,0.42118 0.421173,1.10693 0,1.52811 -0.421173,0.42117 -1.10693,0.42117 -1.528103,0 0,0 -1.528104,-1.52811 -1.528104,-1.52811 -0.421173,-0.42117 -0.421173,-1.10693 0,-1.5281 0.421173,-0.42117 1.106931,-0.42117 1.528104,0 z"
       id="Imported Path"
       inkscape:connector-curvature="0"
       style="fill:#ffffff;stroke:#ffffff;stroke-width:0.53996587;stroke-opacity:1;fill-opacity:1" />
  </g>
</svg>
