<?xml version="1.0" encoding="UTF-8" standalone="no"?>
<!-- Created with Inkscape (http://www.inkscape.org/) -->

<svg
   xmlns:dc="http://purl.org/dc/elements/1.1/"
   xmlns:cc="http://creativecommons.org/ns#"
   xmlns:rdf="http://www.w3.org/1999/02/22-rdf-syntax-ns#"
   xmlns:svg="http://www.w3.org/2000/svg"
   xmlns="http://www.w3.org/2000/svg"
   xmlns:sodipodi="http://sodipodi.sourceforge.net/DTD/sodipodi-0.dtd"
   xmlns:inkscape="http://www.inkscape.org/namespaces/inkscape"
   width="100"
   height="100"
   viewBox="0 0 26.458333 26.458333"
   version="1.1"
   id="svg8"
   sodipodi:docname="cloudy.svg"
   inkscape:version="0.92.4 (5da689c313, 2019-01-14)">
  <defs
     id="defs2" />
  <sodipodi:namedview
     id="base"
     pagecolor="#ffffff"
     bordercolor="#666666"
     borderopacity="1.0"
     inkscape:pageopacity="0.0"
     inkscape:pageshadow="2"
     inkscape:zoom="5.6"
     inkscape:cx="62.00196"
     inkscape:cy="51.403088"
     inkscape:document-units="mm"
     inkscape:current-layer="layer1"
     showgrid="false"
     units="px"
     showguides="false"
     inkscape:window-width="1920"
     inkscape:window-height="1027"
     inkscape:window-x="-8"
     inkscape:window-y="-8"
     inkscape:window-maximized="1" />
  <metadata
     id="metadata5">
    <rdf:RDF>
      <cc:Work
         rdf:about="">
        <dc:format>image/svg+xml</dc:format>
        <dc:type
           rdf:resource="http://purl.org/dc/dcmitype/StillImage" />
        <dc:title></dc:title>
      </cc:Work>
    </rdf:RDF>
  </metadata>
  <g
     inkscape:label="Layer 1"
     inkscape:groupmode="layer"
     id="layer1"
     transform="translate(0,-270.54167)">
    <path
       d="m 9.7170081,292.77359 c -5.178892,0 -9.37356339,-4.02873 -9.37356339,-9.00275 0,-4.97401 4.19467139,-9.00275 9.37356339,-9.00275 3.5150879,0 6.5732119,1.86244 8.1784339,4.61954 0.386663,-0.0676 0.785039,-0.11824 1.189274,-0.11824 3.88417,0 7.030172,3.02155 7.030172,6.75207 0,3.73051 -3.146002,6.75205 -7.030172,6.75205 -1.622799,0 -7.498852,0 -9.3677079,0 z m 9.3677079,-2.25069 c 2.589446,0 4.686781,-2.01436 4.686781,-4.50137 0,-2.48701 -2.097335,-4.50138 -4.686781,-4.50138 -0.937358,0 -1.804413,0.27009 -2.536723,0.72586 -0.720591,-2.9878 -3.497511,-5.22723 -6.8309849,-5.22723 -3.884169,0 -7.030172,3.02155 -7.030172,6.75206 0,3.73051 3.146003,6.75206 7.030172,6.75206 2.1149099,0 7.5984449,0 9.3677079,0 z"
       id="Imported Path"
       inkscape:connector-curvature="0"
       style="fill:#ffffff;stroke:#ffffff;stroke-width:0.57414305;stroke-opacity:1;fill-opacity:1" />
  </g>
</svg>
