<?xml version="1.0" encoding="UTF-8" standalone="no"?>
<!-- Created with Inkscape (http://www.inkscape.org/) -->

<svg
   xmlns:dc="http://purl.org/dc/elements/1.1/"
   xmlns:cc="http://creativecommons.org/ns#"
   xmlns:rdf="http://www.w3.org/1999/02/22-rdf-syntax-ns#"
   xmlns:svg="http://www.w3.org/2000/svg"
   xmlns="http://www.w3.org/2000/svg"
   xmlns:sodipodi="http://sodipodi.sourceforge.net/DTD/sodipodi-0.dtd"
   xmlns:inkscape="http://www.inkscape.org/namespaces/inkscape"
   width="100"
   height="100"
   viewBox="0 0 26.458333 26.458333"
   version="1.1"
   id="svg8"
   sodipodi:docname="fog.svg"
   inkscape:version="0.92.4 (5da689c313, 2019-01-14)">
  <defs
     id="defs2" />
  <sodipodi:namedview
     id="base"
     pagecolor="#ffffff"
     bordercolor="#666666"
     borderopacity="1.0"
     inkscape:pageopacity="0.0"
     inkscape:pageshadow="2"
     inkscape:zoom="5.6"
     inkscape:cx="62.00196"
     inkscape:cy="51.403088"
     inkscape:document-units="mm"
     inkscape:current-layer="layer1"
     showgrid="false"
     units="px"
     showguides="false"
     inkscape:window-width="1920"
     inkscape:window-height="1027"
     inkscape:window-x="-8"
     inkscape:window-y="-8"
     inkscape:window-maximized="1" />
  <metadata
     id="metadata5">
    <rdf:RDF>
      <cc:Work
         rdf:about="">
        <dc:format>image/svg+xml</dc:format>
        <dc:type
           rdf:resource="http://purl.org/dc/dcmitype/StillImage" />
        <dc:title></dc:title>
      </cc:Work>
    </rdf:RDF>
  </metadata>
  <g
     inkscape:label="Layer 1"
     inkscape:groupmode="layer"
     id="layer1"
     transform="translate(0,-270.54167)">
    <path
       d="m 24.975684,291.52354 c 0,0 -23.4930355,0 -23.4930355,0 -0.6460582,0 -1.1746522,-0.575 -1.1746522,-1.29211 0,-0.71068 0.528594,-1.29213 1.1746522,-1.29213 0,0 23.4930355,0 23.4930355,0 0.64606,0 1.174653,0.58145 1.174653,1.29213 0,0.71065 -0.528593,1.29211 -1.174653,1.29211 z m 0,-5.16846 c 0,0 -23.4930355,0 -23.4930355,0 -0.6460582,0 -1.1746522,-0.575 -1.1746522,-1.29213 0,-0.71065 0.528594,-1.29211 1.1746522,-1.29211 0,0 23.4930355,0 23.4930355,0 0.64606,0 1.174653,0.58146 1.174653,1.29211 0,0.71713 -0.528593,1.29213 -1.174653,1.29213 z m -5.873256,-7.75272 c -0.939722,0 -1.808965,0.31012 -2.543122,0.83343 -0.728284,-3.43057 -3.512208,-6.00187 -6.8540936,-6.00187 -3.888098,0 -7.0479117,3.47578 -7.0479117,7.75268 0,0 -2.3493044,0 -2.3493044,0 0,-5.7047 4.2111261,-10.33692 9.3972161,-10.33692 3.5298286,0 6.5956706,2.14491 8.2049426,5.30413 0.387636,-0.0776 0.781146,-0.13575 1.192273,-0.13575 3.065838,0 5.667693,2.15783 6.636782,5.16845 0,0 -2.572488,0 -2.572488,0 -0.816384,-1.54407 -2.325812,-2.58424 -4.064294,-2.58424 z M 1.4826485,294.10777 c 0,0 23.4930355,0 23.4930355,0 0.64606,0 1.174653,0.575 1.174653,1.29211 0,0.71068 -0.528593,1.29213 -1.174653,1.29213 0,0 -23.4930355,0 -23.4930355,0 -0.6460582,0 -1.1746522,-0.58145 -1.1746522,-1.29213 0,-0.71711 0.528594,-1.29211 1.1746522,-1.29211 z"
       id="Imported Path"
       inkscape:connector-curvature="0"
       style="fill:#ffffff;stroke:#ffffff;stroke-width:0.61599261;stroke-opacity:1;fill-opacity:1" />
  </g>
</svg>
