<?xml version="1.0" encoding="UTF-8" standalone="no"?>
<!-- Created with Inkscape (http://www.inkscape.org/) -->

<svg
   xmlns:dc="http://purl.org/dc/elements/1.1/"
   xmlns:cc="http://creativecommons.org/ns#"
   xmlns:rdf="http://www.w3.org/1999/02/22-rdf-syntax-ns#"
   xmlns:svg="http://www.w3.org/2000/svg"
   xmlns="http://www.w3.org/2000/svg"
   xmlns:sodipodi="http://sodipodi.sourceforge.net/DTD/sodipodi-0.dtd"
   xmlns:inkscape="http://www.inkscape.org/namespaces/inkscape"
   width="100"
   height="100"
   viewBox="0 0 26.458333 26.458333"
   version="1.1"
   id="svg8"
   sodipodi:docname="partly-cloudy-day.svg"
   inkscape:version="0.92.4 (5da689c313, 2019-01-14)">
  <defs
     id="defs2" />
  <sodipodi:namedview
     id="base"
     pagecolor="#ffffff"
     bordercolor="#666666"
     borderopacity="1.0"
     inkscape:pageopacity="0.0"
     inkscape:pageshadow="2"
     inkscape:zoom="5.6"
     inkscape:cx="62.00196"
     inkscape:cy="51.403088"
     inkscape:document-units="mm"
     inkscape:current-layer="layer1"
     showgrid="false"
     units="px"
     showguides="false"
     inkscape:window-width="1920"
     inkscape:window-height="1027"
     inkscape:window-x="-8"
     inkscape:window-y="-8"
     inkscape:window-maximized="1" />
  <metadata
     id="metadata5">
    <rdf:RDF>
      <cc:Work
         rdf:about="">
        <dc:format>image/svg+xml</dc:format>
        <dc:type
           rdf:resource="http://purl.org/dc/dcmitype/StillImage" />
        <dc:title></dc:title>
      </cc:Work>
    </rdf:RDF>
  </metadata>
  <g
     inkscape:label="Layer 1"
     inkscape:groupmode="layer"
     id="layer1"
     transform="translate(0,-270.54167)">
    <path
       d="m 25.242208,284.84955 c 0,0 -1.922469,0 -1.922469,0 -0.528681,0 -0.961237,-0.48124 -0.961237,-1.0814 0,-0.59479 0.432556,-1.08143 0.961237,-1.08143 0,0 1.922469,0 1.922469,0 0.533488,0 0.961237,0.48664 0.961237,1.08143 0,0.60016 -0.427749,1.0814 -0.961237,1.0814 z m -3.777655,-7.19681 c -0.374881,0.42175 -0.98046,0.42175 -1.355342,0 -0.379688,-0.42176 -0.379688,-1.10846 0,-1.5302 0,0 1.355342,-1.5302 1.355342,-1.5302 0.379688,-0.42176 0.985267,-0.42176 1.360148,0 0.374882,0.42174 0.374882,1.10844 0,1.5302 0,0 -1.360148,1.5302 -1.360148,1.5302 z m -1.413017,8.44043 c 0,0 0,0 0,0 0.841082,1.12468 1.345731,2.57918 1.345731,4.16346 0,3.58488 -2.580918,6.48848 -5.767413,6.48848 -1.331313,0 -6.1519092,0 -7.6850798,0 -4.2486617,0 -7.68988519,-3.87148 -7.68988519,-8.65131 0,-4.77986 3.44122349,-8.65132 7.68988519,-8.65132 0.7545692,0 1.4851092,0.12976 2.1723918,0.35687 1.052553,-1.53021 2.701072,-2.51971 4.551451,-2.51971 3.186496,0 5.767414,2.90902 5.767414,6.48851 0,0.82186 -0.139372,1.60047 -0.384495,2.32502 z M 2.1773608,288.0938 c 0,3.58488 2.580918,6.48848 5.7674134,6.48848 1.7350298,0 6.2336118,0 7.6850798,0 2.12433,0 3.844941,-1.93572 3.844941,-4.32565 0,-2.38993 -1.720611,-4.32567 -3.844941,-4.32567 -0.768989,0 -1.480304,0.25955 -2.081076,0.69752 -0.59116,-2.87117 -2.869288,-5.02317 -5.6088097,-5.02317 -3.1816895,0 -5.7626075,2.9036 -5.7626075,6.48849 z m 12.4912562,-8.65132 c -1.062166,0 -2.023401,0.48664 -2.720296,1.27065 1.124645,0.77862 2.061851,1.87086 2.705877,3.16854 0.317209,-0.065 0.644029,-0.11356 0.975656,-0.11356 1.023714,0 1.980144,0.30279 2.811613,0.82726 0,0 0,0 0,0 0.04806,-0.27034 0.07209,-0.5461 0.07209,-0.82726 0,-2.38453 -1.720611,-4.32567 -3.844942,-4.32567 z m 0,-4.32567 c -0.528679,0 -0.961236,-0.48122 -0.961236,-1.08141 0,0 0,-2.15743 0,-2.15743 0,-0.60017 0.432557,-1.08141 0.961236,-1.08141 0.533486,0 0.961237,0.48124 0.961237,1.08141 0,0 0,2.15743 0,2.15743 0,0.60019 -0.427751,1.08141 -0.961237,1.08141 z m -6.7959351,2.53593 c 0,0 -1.3553424,-1.5302 -1.3553424,-1.5302 -0.3748817,-0.42176 -0.3748817,-1.10846 0,-1.5302 0.3748816,-0.42176 0.9804607,-0.42176 1.3553424,0 0,0 1.3601482,1.5302 1.3601482,1.5302 0.3748816,0.42174 0.3748816,1.10844 0,1.5302 -0.3748816,0.42175 -0.9852664,0.42175 -1.3601482,0 z"
       id="Imported Path"
       inkscape:connector-curvature="0"
       style="fill:#ffffff;stroke:#ffffff;stroke-width:0.50977802" />
  </g>
</svg>
