<?xml version="1.0" encoding="UTF-8" standalone="no"?>
<!-- Created with Inkscape (http://www.inkscape.org/) -->

<svg
   xmlns:dc="http://purl.org/dc/elements/1.1/"
   xmlns:cc="http://creativecommons.org/ns#"
   xmlns:rdf="http://www.w3.org/1999/02/22-rdf-syntax-ns#"
   xmlns:svg="http://www.w3.org/2000/svg"
   xmlns="http://www.w3.org/2000/svg"
   xmlns:sodipodi="http://sodipodi.sourceforge.net/DTD/sodipodi-0.dtd"
   xmlns:inkscape="http://www.inkscape.org/namespaces/inkscape"
   width="100"
   height="100"
   viewBox="0 0 26.458333 26.458333"
   version="1.1"
   id="svg8"
   sodipodi:docname="rain.svg"
   inkscape:version="0.92.4 (5da689c313, 2019-01-14)">
  <defs
     id="defs2" />
  <sodipodi:namedview
     id="base"
     pagecolor="#ffffff"
     bordercolor="#666666"
     borderopacity="1.0"
     inkscape:pageopacity="0.0"
     inkscape:pageshadow="2"
     inkscape:zoom="5.6"
     inkscape:cx="67.104251"
     inkscape:cy="44.876991"
     inkscape:document-units="mm"
     inkscape:current-layer="layer1"
     showgrid="false"
     units="px"
     showguides="false"
     inkscape:window-width="1920"
     inkscape:window-height="1027"
     inkscape:window-x="-8"
     inkscape:window-y="-8"
     inkscape:window-maximized="1" />
  <metadata
     id="metadata5">
    <rdf:RDF>
      <cc:Work
         rdf:about="">
        <dc:format>image/svg+xml</dc:format>
        <dc:type
           rdf:resource="http://purl.org/dc/dcmitype/StillImage" />
        <dc:title></dc:title>
      </cc:Work>
    </rdf:RDF>
  </metadata>
  <g
     inkscape:label="Layer 1"
     inkscape:groupmode="layer"
     id="layer1"
     transform="translate(0,-270.54167)">
    <path
       d="m 21.460651,289.2389 c 0,0 0,-2.57529 0,-2.57529 1.405229,-0.81138 2.35185,-2.32831 2.35185,-4.06869 0,-2.5988 -2.104906,-4.70372 -4.703703,-4.70372 -0.940739,0 -1.810927,0.28223 -2.54588,0.75848 -0.723193,-3.12209 -3.516018,-5.46218 -6.8615284,-5.46218 -3.892315,0 -7.0555554,3.15736 -7.0555554,7.05555 0,2.08728 0.9113404,3.95699 2.3518524,5.25051 0,0 0,2.88691 0,2.88691 -2.8045841,-1.62865 -4.70370505,-4.65668 -4.70370505,-8.13742 0,-5.1917 4.21569405,-9.4074 9.40740805,-9.4074 3.5336594,0 6.6028234,1.94615 8.2138424,4.82717 0.388058,-0.0706 0.781993,-0.12354 1.193566,-0.12354 3.898193,0 7.055554,3.15736 7.055554,7.05555 0,3.06918 -1.963795,5.67384 -4.703701,6.64399 z m -12.9351874,0.41157 c -0.646758,0 -0.587963,-0.52917 -0.587963,-1.17592 0,0 0,-4.70372 0,-4.70372 0,-0.64675 -0.0588,-1.17591 0.587963,-1.17591 0.652642,0 0.587964,0.52916 0.587964,1.17591 0,0 0,4.70372 0,4.70372 0,0.64675 0.06469,1.17592 -0.587964,1.17592 z m 0,2.35185 c 0.652642,0 1.175926,0.5233 1.175926,1.17592 0,0.64677 -0.523284,1.17595 -1.175926,1.17595 -0.646758,0 -1.175925,-0.52918 -1.175925,-1.17595 0,-0.65262 0.529167,-1.17592 1.175925,-1.17592 z m 4.7037054,0 c -0.646758,0 -0.587962,-0.52916 -0.587962,-1.17591 0,0 0,-4.70372 0,-4.70372 0,-0.64675 -0.0588,-1.17592 0.587962,-1.17592 0.646758,0 0.587963,0.52917 0.587963,1.17592 0,0 0,4.70372 0,4.70372 0,0.64675 0.06467,1.17591 -0.587963,1.17591 z m 0,2.35187 c 0.646758,0 1.175927,0.52326 1.175927,1.17591 0,0.64676 -0.529169,1.17592 -1.175927,1.17592 -0.646758,0 -1.175926,-0.52916 -1.175926,-1.17592 0,-0.65265 0.529168,-1.17591 1.175926,-1.17591 z m 4.703704,-4.70372 c -0.64676,0 -0.587964,-0.52917 -0.587964,-1.17592 0,0 0,-4.70372 0,-4.70372 0,-0.64675 -0.0588,-1.17591 0.587964,-1.17591 0.646758,0 0.587962,0.52916 0.587962,1.17591 0,0 0,4.70372 0,4.70372 0,0.64675 0.0588,1.17592 -0.587962,1.17592 z m 0,2.35185 c 0.646758,0 1.175925,0.5233 1.175925,1.17592 0,0.64677 -0.529167,1.17595 -1.175925,1.17595 -0.64676,0 -1.175926,-0.52918 -1.175926,-1.17595 0,-0.65262 0.529166,-1.17592 1.175926,-1.17592 z"
       id="Imported Path"
       inkscape:connector-curvature="0"
       style="fill:#ffffff;stroke:#ffffff;stroke-width:0.5879631" />
  </g>
</svg>
