<?xml version="1.0" encoding="UTF-8" standalone="no"?>
<!-- Created with Inkscape (http://www.inkscape.org/) -->

<svg
   xmlns:dc="http://purl.org/dc/elements/1.1/"
   xmlns:cc="http://creativecommons.org/ns#"
   xmlns:rdf="http://www.w3.org/1999/02/22-rdf-syntax-ns#"
   xmlns:svg="http://www.w3.org/2000/svg"
   xmlns="http://www.w3.org/2000/svg"
   xmlns:sodipodi="http://sodipodi.sourceforge.net/DTD/sodipodi-0.dtd"
   xmlns:inkscape="http://www.inkscape.org/namespaces/inkscape"
   width="100"
   height="100"
   viewBox="0 0 26.458333 26.458333"
   version="1.1"
   id="svg8"
   sodipodi:docname="sleet.svg"
   inkscape:version="0.92.4 (5da689c313, 2019-01-14)">
  <defs
     id="defs2" />
  <sodipodi:namedview
     id="base"
     pagecolor="#ffffff"
     bordercolor="#666666"
     borderopacity="1.0"
     inkscape:pageopacity="0.0"
     inkscape:pageshadow="2"
     inkscape:zoom="5.6"
     inkscape:cx="67.104251"
     inkscape:cy="44.876991"
     inkscape:document-units="mm"
     inkscape:current-layer="layer1"
     showgrid="false"
     units="px"
     showguides="false"
     inkscape:window-width="1920"
     inkscape:window-height="1027"
     inkscape:window-x="-8"
     inkscape:window-y="-8"
     inkscape:window-maximized="1" />
  <metadata
     id="metadata5">
    <rdf:RDF>
      <cc:Work
         rdf:about="">
        <dc:format>image/svg+xml</dc:format>
        <dc:type
           rdf:resource="http://purl.org/dc/dcmitype/StillImage" />
        <dc:title></dc:title>
      </cc:Work>
    </rdf:RDF>
  </metadata>
  <g
     inkscape:label="Layer 1"
     inkscape:groupmode="layer"
     id="layer1"
     transform="translate(0,-270.54167)">
    <path
       d="m 25.077627,292.21689 c -0.611712,0 -1.102183,-0.50675 -1.102183,-1.12612 0,-0.62503 0.490471,-1.12615 1.102183,-1.12615 0.606199,0 1.102182,0.50112 1.102182,1.12615 0,0.61937 -0.495983,1.12612 -1.102182,1.12612 z m -4.959821,-3.77255 c 0,0 0,-2.46628 0,-2.46628 1.317107,-0.77703 2.204364,-2.22973 2.204364,-3.89644 0,-2.48876 -1.972906,-4.50457 -4.408729,-4.50457 -0.881746,0 -1.697361,0.27027 -2.386224,0.72638 -0.683353,-2.98992 -3.295525,-5.23094 -6.4312343,-5.23094 -3.6537332,0 -6.6130931,3.02368 -6.6130931,6.75686 0,1.9989 0.8541913,3.78946 2.2043651,5.0282 0,0 0,2.76468 0,2.76468 -2.6287055,-1.55969 -4.40873024,-4.45952 -4.40873024,-7.79288 0,-4.97194 3.94581264,-9.00916 8.81745824,-9.00916 3.3065483,0 6.1887533,1.86377 7.6987423,4.62282 0.363721,-0.0676 0.732952,-0.11833 1.118716,-0.11833 3.648224,0 6.613094,3.02368 6.613094,6.75684 0,2.93924 -1.846154,5.43363 -4.408729,6.36272 z m -18.1860077,4.33564 c 0.6117106,0 1.1021826,0.50112 1.1021826,1.12614 0,0.61938 -0.490472,1.12613 -1.1021826,1.12613 -0.6062,0 -1.10218255,-0.50675 -1.10218255,-1.12613 0,-0.62502 0.49598255,-1.12614 1.10218255,-1.12614 z m 5.510911,-9.57222 c 0,-0.61937 -0.055105,-1.12614 0.5510908,-1.12614 0.6062,0 0.5510913,0.50677 0.5510913,1.12614 0,0 0,13.51372 0,13.51372 0,0 -1.1021821,0 -1.1021821,0 0,0 0,0 0,0 0,0 0,0 0,0 0,-1.2444 -0.9864528,-2.25229 -2.2043633,-2.25229 0,0 0,-1.12615 0,-1.12615 0.8486789,0 1.6202071,0.33785 2.2043633,0.87839 0,0 0,-11.01367 0,-11.01367 z m 4.9598217,7.88301 c -0.606201,0 -0.551092,-0.50678 -0.551092,-1.12615 0,0 0,-4.50456 0,-4.50456 0,-0.61937 -0.0551,-1.12615 0.551092,-1.12615 0.606199,0 0.551091,0.50678 0.551091,1.12615 0,0 0,4.50456 0,4.50456 0,0.61937 0.0551,1.12615 -0.551091,1.12615 z m 0,2.25227 c 0.606199,0 1.102181,0.50112 1.102181,1.12615 0,0.61937 -0.495982,1.12612 -1.102181,1.12612 -0.606201,0 -1.102183,-0.50675 -1.102183,-1.12612 0,-0.62503 0.495982,-1.12615 1.102183,-1.12615 z m 4.408728,-11.26142 c 0.6062,0 0.551091,0.50677 0.551091,1.12614 0,0 0,10.14655 0,10.14655 1.002985,-1.3739 2.601151,-2.26354 4.408731,-2.26354 0,0 0,1.12612 0,1.12612 -2.435824,0 -4.408731,2.01581 -4.408731,4.50459 0,0 -1.102183,0 -1.102183,0 0,-0.15194 0.01093,-0.30406 0.02205,-0.4561 -0.02756,-0.18575 -0.02205,-0.41668 -0.02205,-0.67007 0,0 0,-12.38755 0,-12.38755 0,-0.61937 -0.0551,-1.12614 0.551092,-1.12614 z"
       id="Imported Path"
       inkscape:connector-curvature="0"
       style="fill:#ffffff;stroke:#ffffff;stroke-width:0.55704892" />
  </g>
</svg>
