<?xml version="1.0" encoding="UTF-8" standalone="no"?>
<!-- Created with Inkscape (http://www.inkscape.org/) -->

<svg
   xmlns:dc="http://purl.org/dc/elements/1.1/"
   xmlns:cc="http://creativecommons.org/ns#"
   xmlns:rdf="http://www.w3.org/1999/02/22-rdf-syntax-ns#"
   xmlns:svg="http://www.w3.org/2000/svg"
   xmlns="http://www.w3.org/2000/svg"
   xmlns:sodipodi="http://sodipodi.sourceforge.net/DTD/sodipodi-0.dtd"
   xmlns:inkscape="http://www.inkscape.org/namespaces/inkscape"
   width="100"
   height="100"
   viewBox="0 0 26.458333 26.458333"
   version="1.1"
   id="svg8"
   sodipodi:docname="snow.svg"
   inkscape:version="0.92.4 (5da689c313, 2019-01-14)">
  <defs
     id="defs2" />
  <sodipodi:namedview
     id="base"
     pagecolor="#ffffff"
     bordercolor="#666666"
     borderopacity="1.0"
     inkscape:pageopacity="0.0"
     inkscape:pageshadow="2"
     inkscape:zoom="5.6"
     inkscape:cx="67.104251"
     inkscape:cy="44.876991"
     inkscape:document-units="mm"
     inkscape:current-layer="layer1"
     showgrid="false"
     units="px"
     showguides="false"
     inkscape:window-width="1920"
     inkscape:window-height="1027"
     inkscape:window-x="-8"
     inkscape:window-y="-8"
     inkscape:window-maximized="1" />
  <metadata
     id="metadata5">
    <rdf:RDF>
      <cc:Work
         rdf:about="">
        <dc:format>image/svg+xml</dc:format>
        <dc:type
           rdf:resource="http://purl.org/dc/dcmitype/StillImage" />
        <dc:title></dc:title>
      </cc:Work>
    </rdf:RDF>
  </metadata>
  <g
     inkscape:label="Layer 1"
     inkscape:groupmode="layer"
     id="layer1"
     transform="translate(0,-270.54167)">
    <path
       d="m 20.272818,292.48394 c 0,0 0,-2.77294 0,-2.77294 2.025051,-0.60489 3.521825,-2.72541 3.521825,-5.26051 0,-3.00404 -2.101356,-5.4372 -4.695767,-5.4372 -0.939154,0 -1.813741,0.32624 -2.541585,0.87675 -0.727843,-3.60896 -3.510085,-6.31395 -6.8499496,-6.31395 -3.8916163,0 -7.0436526,3.65651 -7.0436526,8.15579 0,3.01766 1.4204694,5.6479 3.5218263,7.05476 0,0 0,3.02446 0,3.02446 -3.4396506,-1.61757 -5.86970855,-5.51875 -5.86970855,-10.07922 0,-6.00131 4.20858095,-10.8744 9.39153485,-10.8744 3.5276956,0 6.5916816,2.24962 8.1999826,5.57992 0.387402,-0.0816 0.780672,-0.14277 1.191552,-0.14277 3.891617,0 7.04365,3.64971 7.04365,8.15579 0,4.04393 -2.541583,7.3878 -5.869708,8.03345 z M 9.1614592,288.52838 c 0.322834,-0.65245 1.0448078,-0.86992 1.6024308,-0.49613 0,0 1.291336,0.86316 1.291336,0.86316 0,0 0,-1.72631 0,-1.72631 0,-0.74764 0.528273,-1.3593 1.173941,-1.3593 0.645668,0 1.173942,0.61166 1.173942,1.3593 0,0 0,1.72631 0,1.72631 0,0 1.291336,-0.86316 1.291336,-0.86316 0.557622,-0.37379 1.279597,-0.15617 1.602431,0.49613 0.322834,0.65248 0.129136,1.48164 -0.428489,1.85546 0,0 -1.291337,0.86316 -1.291337,0.86316 0,0 1.291337,0.86315 1.291337,0.86315 0.557621,0.37379 0.751323,1.20298 0.428489,1.85546 -0.328706,0.64568 -1.044809,0.86995 -1.602431,0.49613 0,0 -1.291336,-0.86315 -1.291336,-0.86315 0,0 0,1.7263 0,1.7263 0,0.74762 -0.528274,1.35931 -1.173942,1.35931 -0.645668,0 -1.173941,-0.61169 -1.173941,-1.35931 0,0 0,-1.7263 0,-1.7263 0,0 -1.291336,0.86315 -1.291336,0.86315 -0.557623,0.37382 -1.2795968,0.15642 -1.6024308,-0.49613 -0.3228338,-0.6457 -0.129136,-1.48167 0.4284888,-1.85546 0,0 1.291335,-0.86315 1.291335,-0.86315 0,0 -1.291335,-0.86316 -1.291335,-0.86316 -0.5576227,-0.37382 -0.7513226,-1.20298 -0.4284888,-1.85546 z m 4.0677078,4.07792 c 0.645668,0 1.173942,-0.60491 1.173942,-1.3593 0,-0.74762 -0.528274,-1.35931 -1.173942,-1.35931 -0.645668,0 -1.173941,0.61169 -1.173941,1.35931 0,0.74761 0.528273,1.3593 1.173941,1.3593 z"
       id="Imported Path"
       inkscape:connector-curvature="0"
       style="fill:#ffffff;stroke:#ffffff;stroke-width:0.63161308" />
  </g>
</svg>
