<?xml version="1.0" encoding="UTF-8" standalone="no"?>
<!-- Created with Inkscape (http://www.inkscape.org/) -->

<svg
   xmlns:dc="http://purl.org/dc/elements/1.1/"
   xmlns:cc="http://creativecommons.org/ns#"
   xmlns:rdf="http://www.w3.org/1999/02/22-rdf-syntax-ns#"
   xmlns:svg="http://www.w3.org/2000/svg"
   xmlns="http://www.w3.org/2000/svg"
   xmlns:sodipodi="http://sodipodi.sourceforge.net/DTD/sodipodi-0.dtd"
   xmlns:inkscape="http://www.inkscape.org/namespaces/inkscape"
   width="100"
   height="100"
   viewBox="0 0 26.458333 26.458333"
   version="1.1"
   id="svg8"
   sodipodi:docname="wind.svg"
   inkscape:version="0.92.4 (5da689c313, 2019-01-14)">
  <defs
     id="defs2" />
  <sodipodi:namedview
     id="base"
     pagecolor="#ffffff"
     bordercolor="#666666"
     borderopacity="1.0"
     inkscape:pageopacity="0.0"
     inkscape:pageshadow="2"
     inkscape:zoom="5.6"
     inkscape:cx="67.104251"
     inkscape:cy="44.876991"
     inkscape:document-units="mm"
     inkscape:current-layer="layer1"
     showgrid="false"
     units="px"
     showguides="false"
     inkscape:window-width="1920"
     inkscape:window-height="1027"
     inkscape:window-x="-8"
     inkscape:window-y="-8"
     inkscape:window-maximized="1" />
  <metadata
     id="metadata5">
    <rdf:RDF>
      <cc:Work
         rdf:about="">
        <dc:format>image/svg+xml</dc:format>
        <dc:type
           rdf:resource="http://purl.org/dc/dcmitype/StillImage" />
        <dc:title></dc:title>
      </cc:Work>
    </rdf:RDF>
  </metadata>
  <g
     inkscape:label="Layer 1"
     inkscape:groupmode="layer"
     id="layer1"
     transform="translate(0,-270.54167)">
    <path
       d="m 22.583864,285.60832 c 0,0 0,0 0,0 0,0 -1.754006,0 -1.754006,0 -0.648982,0 -1.169337,-0.82688 -1.169337,-1.83751 0,-1.01063 0.520355,-1.83752 1.169337,-1.83752 0,0 1.754006,0 1.754006,0 0.643136,0 1.169335,-0.82688 1.169335,-1.83754 0,-1.01062 -0.526199,-1.83752 -1.169335,-1.83752 -0.648982,0 -1.169337,-0.8177 -1.169337,-1.8375 0,-1.01067 0.520355,-1.83755 1.169337,-1.83755 0.08186,0 0.157857,0.0195 0.233867,0.0368 1.824166,0.19305 3.274143,2.56335 3.274143,5.47582 0,3.04112 -1.572758,5.51258 -3.50801,5.51258 z m -5.846686,-3.67503 c 0,0 -1.169338,0 -1.169338,0 0,0 -4.092678,0 -4.092678,0 0,0 -7.6006904,0 -7.6006904,0 -0.643135,0 -1.169337,0.82689 -1.169337,1.83752 0,1.01063 0.526202,1.83751 1.169337,1.83751 0,0 1.169337,0 1.169337,0 0,0 2.338673,0 2.338673,0 0,0 1.754006,0 1.754006,0 0,0 2.3386744,0 2.3386744,0 0,0 1.754006,0 1.754006,0 0,0 2.338672,0 2.338672,0 0,0 1.169338,0 1.169338,0 1.935254,0 3.508011,2.47148 3.508011,5.5126 0,2.92165 -1.449978,5.28287 -3.274144,5.47582 -0.07602,0.0261 -0.152013,0.0368 -0.233867,0.0368 -0.643136,0 -1.169338,-0.82688 -1.169338,-1.83755 0,-1.01062 0.526202,-1.83751 1.169338,-1.83751 0.643136,0 1.169337,-0.82689 1.169337,-1.83751 0,-1.01066 -0.526201,-1.83754 -1.169337,-1.83754 0,0 -1.169338,0 -1.169338,0 0,0 -2.338672,0 -2.338672,0 0,0 -1.754006,0 -1.754006,0 0,0 -2.3386744,0 -2.3386744,0 0,0 -1.754006,0 -1.754006,0 0,0 -2.338673,0 -2.338673,0 0,0 -1.169337,0 -1.169337,0 -1.9352534,0 -3.5080116,-2.47146 -3.5080116,-5.51258 0,-2.91247 1.449979,-5.28289 3.2741436,-5.47582 0.07601,-0.0195 0.157861,-0.0368 0.233868,-0.0368 0,0 0,0 0,0 0,0 7.6006904,0 7.6006904,0 0,0 4.092678,0 4.092678,0 0,0 1.169338,0 1.169338,0 0.643136,0 1.169337,-0.8177 1.169337,-1.8375 0,-1.01067 -0.526201,-1.83755 -1.169337,-1.83755 -0.643136,0 -1.169338,-0.81771 -1.169338,-1.83752 0,-1.01066 0.526202,-1.83754 1.169338,-1.83754 0.08186,0 0.157856,0.0195 0.233867,0.0368 1.824166,0.19304 3.274144,2.56335 3.274144,5.47585 0,3.04109 -1.572757,5.51257 -3.508011,5.51257 z"
       id="Imported Path"
       inkscape:connector-curvature="0"
       style="fill:#ffffff;stroke:#ffffff;stroke-width:0.73291999" />
  </g>
</svg>
